<svg width="20" height="23" viewBox="0 0 20 23" fill="none" xmlns="http://www.w3.org/2000/svg">
<path d="M15.2941 1V3.11764M10 1V3.11764M4.70588 1V3.11764M5.76471 14.7647H10M5.76471 9.47056H14.2353M1 15.8235V8.41174C1 5.4174 1 3.91917 1.93071 2.98952C2.86035 2.05882 4.35859 2.05882 7.35294 2.05882H12.6471C15.6414 2.05882 17.1396 2.05882 18.0693 2.98952C19 3.91917 19 5.4174 19 8.41174V11.5882C19 16.5795 19 19.0751 17.4488 20.6252C15.8998 22.1764 13.4041 22.1764 8.41177 22.1764H7.35294C4.35859 22.1764 2.86035 22.1764 1.93071 21.2457C1 20.3161 1 18.8178 1 15.8235Z" stroke="black" stroke-opacity="0.74" stroke-width="1.5" stroke-linecap="round" stroke-linejoin="round"/>
<path d="M18.9996 14.2354C18.9996 14.583 18.9311 14.9272 18.7981 15.2483C18.665 15.5695 18.4701 15.8613 18.2243 16.1071C17.9785 16.3529 17.6866 16.5479 17.3655 16.6809C17.0443 16.8139 16.7001 16.8824 16.3525 16.8824C15.8231 16.8824 15.2005 16.7903 14.687 16.9279C14.4625 16.9881 14.2579 17.1062 14.0936 17.2705C13.9293 17.4348 13.8111 17.6395 13.751 17.8639C13.6133 18.3775 13.7054 19.0011 13.7054 19.5295C13.7054 20.2315 13.4266 20.9048 12.9301 21.4012C12.4337 21.8976 11.7604 22.1765 11.0584 22.1765" stroke="black" stroke-opacity="0.74" stroke-width="1.5" stroke-linecap="round" stroke-linejoin="round"/>
</svg>
