<svg width="26" height="13" viewBox="0 0 26 13" fill="none" xmlns="http://www.w3.org/2000/svg">
<path d="M0.941504 5.74863L6.49592 0.194163C6.69545 -0.0388245 7.0461 -0.0659848 7.27909 0.133589C7.51207 0.333115 7.53923 0.683766 7.33966 0.916753C7.32104 0.938472 7.3008 0.958758 7.27909 0.977327L2.67447 5.58753H24.6645C24.9713 5.58753 25.22 5.83622 25.22 6.143C25.22 6.44978 24.9713 6.69843 24.6645 6.69843H2.67447L7.27909 11.303C7.51207 11.5026 7.53923 11.8532 7.33966 12.0862C7.14009 12.3192 6.78948 12.3464 6.5565 12.1468C6.53478 12.1282 6.51449 12.1079 6.49592 12.0862L0.941456 6.53174C0.726131 6.31518 0.726131 5.96529 0.941504 5.74863Z" fill="#4456A5"/>
</svg>
