<svg width="35" height="35" viewBox="0 0 35 35" fill="none" xmlns="http://www.w3.org/2000/svg">
<rect width="35" height="35" rx="17.5" fill="#E4E6F0"/>
<path d="M20.9284 9.49999C20.9284 7.60637 19.3934 6.07129 17.4999 6.07129C15.6063 6.07129 14.0713 7.60637 14.0713 9.49999V16.3574C14.0713 18.251 15.6063 19.7861 17.4999 19.7861C19.3934 19.7861 20.9284 18.251 20.9284 16.3574V9.49999Z" stroke="#4456A5" stroke-width="1.5"/>
<path d="M9.5 15.2139V16.3568C9.5 18.4786 10.3429 20.5135 11.8431 22.0138C13.3434 23.5142 15.3783 24.3571 17.5 24.3571M17.5 24.3571C19.6217 24.3571 21.6566 23.5142 23.1569 22.0138C24.6571 20.5135 25.5 18.4786 25.5 16.3568V15.2139M17.5 24.3571V28.9287M17.5 28.9287H14.0714M17.5 28.9287H20.9286" stroke="#4456A5" stroke-width="1.5" stroke-linecap="round" stroke-linejoin="round"/>
</svg>
