<svg width="20" height="25" viewBox="0 0 20 25" fill="none" xmlns="http://www.w3.org/2000/svg">
<path d="M3.25 20.125V10C3.25 8.20979 3.96116 6.4929 5.22703 5.22703C6.4929 3.96116 8.20979 3.25 10 3.25C11.7902 3.25 13.5071 3.96116 14.773 5.22703C16.0388 6.4929 16.75 8.20979 16.75 10V20.125M3.25 20.125H16.75M3.25 20.125H1M16.75 20.125H19M8.875 23.5H11.125" stroke="#4456A5" stroke-width="1.5" stroke-linecap="round" stroke-linejoin="round"/>
<path d="M10 3.25C10.6213 3.25 11.125 2.74632 11.125 2.125C11.125 1.50368 10.6213 1 10 1C9.37868 1 8.875 1.50368 8.875 2.125C8.875 2.74632 9.37868 3.25 10 3.25Z" stroke="#4456A5" stroke-width="1.5"/>
</svg>
