<svg width="21" height="23" viewBox="0 0 21 23" fill="none" xmlns="http://www.w3.org/2000/svg">
<path d="M19.6493 14.8222L17.6337 13.3825C17.966 12.1864 17.9881 10.8907 17.6337 9.59499L19.6493 8.17745L18.0435 5.40882L15.7954 6.42767C14.9205 5.54171 13.813 4.85509 12.5173 4.53393L12.2958 2.08646H9.0842L8.86271 4.53393C7.56699 4.85509 6.45953 5.54171 5.58465 6.42767L3.33652 5.40882L1.73071 8.17745L3.74627 9.59499C3.39189 10.8907 3.41404 12.1864 3.74627 13.3825L1.73071 14.8222L3.33652 17.5908L5.58465 16.5609C6.45953 17.4358 7.56699 18.1002 8.86271 18.4435L9.0842 20.9132H12.2958L12.5173 18.4435C13.813 18.1002 14.9205 17.4358 15.7954 16.5609L18.0435 17.5908L19.6493 14.8222ZM12.9049 0.979004C13.2039 0.979004 13.4586 1.20049 13.4586 1.48843L13.658 3.74764C14.4996 4.05772 15.2527 4.51178 15.9283 5.05443L17.977 4.09095C18.2318 3.95805 18.5529 4.04665 18.708 4.30136L20.9229 8.17745C21.0779 8.41002 20.9893 8.73118 20.7457 8.89729L18.8962 10.193C19.0402 11.079 19.0291 11.9539 18.8962 12.8066L20.7457 14.1023C20.9893 14.2684 21.0779 14.5896 20.9229 14.8222L18.708 18.6983C18.5529 18.9308 18.2318 19.0194 17.977 18.8865L15.9283 17.9341C15.2527 18.4768 14.4996 18.9197 13.658 19.252L13.4586 21.4669C13.4586 21.788 13.2039 22.0206 12.9049 22.0206H8.4751C8.32824 22.0206 8.1874 21.9623 8.08355 21.8584C7.97971 21.7546 7.92137 21.6137 7.92137 21.4669L7.72203 19.252C6.88037 18.9197 6.1273 18.4768 5.45175 17.9341L3.40296 18.8865C3.14825 19.0194 2.82709 18.9308 2.67204 18.6983L0.457138 14.8222C0.302094 14.5896 0.390691 14.2684 0.63433 14.1023L2.48378 12.8066C2.35088 11.9539 2.33981 11.079 2.48378 10.193L0.63433 8.89729C0.390691 8.73118 0.302094 8.41002 0.457138 8.17745L2.67204 4.30136C2.82709 4.04665 3.14825 3.95805 3.40296 4.09095L5.45175 5.05443C6.1273 4.51178 6.88037 4.05772 7.72203 3.74764L7.92137 1.48843C7.92137 1.20049 8.17609 0.979004 8.4751 0.979004H12.9049ZM10.69 7.62372C11.718 7.62372 12.7039 8.0321 13.4308 8.759C14.1577 9.48591 14.5661 10.4718 14.5661 11.4998C14.5661 12.5278 14.1577 13.5137 13.4308 14.2406C12.7039 14.9675 11.718 15.3759 10.69 15.3759C9.662 15.3759 8.67611 14.9675 7.9492 14.2406C7.22229 13.5137 6.81392 12.5278 6.81392 11.4998C6.81392 10.4718 7.22229 9.48591 7.9492 8.759C8.67611 8.0321 9.662 7.62372 10.69 7.62372ZM10.69 8.73118C9.95572 8.73118 9.25151 9.02287 8.73229 9.54209C8.21307 10.0613 7.92137 10.7655 7.92137 11.4998C7.92137 12.2341 8.21307 12.9383 8.73229 13.4575C9.25151 13.9767 9.95572 14.2684 10.69 14.2684C11.4243 14.2684 12.1285 13.9767 12.6477 13.4575C13.1669 12.9383 13.4586 12.2341 13.4586 11.4998C13.4586 10.7655 13.1669 10.0613 12.6477 9.54209C12.1285 9.02287 11.4243 8.73118 10.69 8.73118Z" fill="#4456A5"/>
</svg>
