<svg width="21" height="21" viewBox="0 0 21 21" fill="none" xmlns="http://www.w3.org/2000/svg">
<path d="M17.6413 16.3962L17.1747 15.9215L16.9013 16.1882L16.9947 16.5575L17.6413 16.3962ZM18.5 19.8336L18.3387 20.4802C18.4503 20.508 18.5672 20.5065 18.678 20.4757C18.7888 20.445 18.8898 20.3861 18.9711 20.3047C19.0525 20.2234 19.1114 20.1224 19.1421 20.0116C19.1729 19.9007 19.1744 19.7838 19.1467 19.6722L18.5 19.8336ZM13.1667 18.5002L12.6947 18.0282L11.8627 18.8616L13.0053 19.1469L13.1667 18.5002ZM13.2 18.4669L13.6707 18.9389C13.7679 18.842 13.8329 18.7174 13.8567 18.5821C13.8805 18.4469 13.862 18.3076 13.8036 18.1833C13.7453 18.059 13.6499 17.9557 13.5307 17.8876C13.4114 17.8195 13.274 17.7899 13.1373 17.8029L13.2 18.4669ZM9.83333 0.5V3.83337H11.1667V0.5H9.83333ZM12.5 3.1667H8.5V4.50005H12.5V3.1667ZM20.5 11.1668C20.5 9.04504 19.6571 7.01018 18.1568 5.50987C16.6566 4.00956 14.6217 3.1667 12.5 3.1667V4.50005C13.3755 4.50005 14.2424 4.67249 15.0512 5.00752C15.8601 5.34256 16.595 5.83363 17.214 6.45269C17.8331 7.07176 18.3242 7.8067 18.6592 8.61554C18.9942 9.42439 19.1667 10.2913 19.1667 11.1668H20.5ZM18.108 16.8722C18.8668 16.1284 19.4694 15.2403 19.8801 14.2603C20.2909 13.2803 20.5017 12.2294 20.5 11.1668H19.1667C19.1684 12.0524 18.9929 12.9281 18.6506 13.7449C18.3082 14.5617 17.8073 15.3018 17.1747 15.9215L18.108 16.8722ZM19.148 19.6722L18.2867 16.2335L16.9933 16.5562L17.852 19.9936L19.148 19.6722ZM13.0053 19.1469L18.3387 20.4802L18.6613 19.1869L13.328 17.8535L13.0053 19.1469ZM12.728 17.9962L12.6947 18.0282L13.6387 18.9709L13.6707 18.9389L12.728 17.9962ZM12.5 19.1669C12.7578 19.1669 13.012 19.1549 13.2627 19.1309L13.1373 17.8029C12.9255 17.8233 12.7128 17.8335 12.5 17.8335V19.1669ZM8.5 19.1669H12.5V17.8335H8.5V19.1669ZM0.5 11.1668C0.5 13.2886 1.34285 15.3234 2.84314 16.8237C4.34343 18.324 6.37826 19.1669 8.5 19.1669V17.8335C7.62452 17.8335 6.75761 17.6611 5.94877 17.3261C5.13994 16.991 4.40501 16.5 3.78595 15.8809C2.53571 14.6306 1.83333 12.9349 1.83333 11.1668H0.5ZM8.5 3.1667C6.37826 3.1667 4.34343 4.00956 2.84314 5.50987C1.34285 7.01018 0.5 9.04504 0.5 11.1668H1.83333C1.83333 9.39867 2.53571 7.70295 3.78595 6.45269C5.0362 5.20244 6.73189 4.50005 8.5 4.50005V3.1667ZM10.5 11.1668C9.96956 11.1668 9.46085 10.9561 9.08578 10.581C8.71071 10.2059 8.5 9.69721 8.5 9.16677H7.16666C7.16666 10.0508 7.51785 10.8987 8.14297 11.5238C8.76809 12.149 9.61594 12.5001 10.5 12.5001V11.1668ZM12.5 9.16677C12.5 9.69721 12.2893 10.2059 11.9142 10.581C11.5391 10.9561 11.0304 11.1668 10.5 11.1668V12.5001C11.384 12.5001 12.2319 12.149 12.857 11.5238C13.4821 10.8987 13.8333 10.0508 13.8333 9.16677H12.5ZM10.5 7.16675C11.0304 7.16675 11.5391 7.37746 11.9142 7.75254C12.2893 8.12762 12.5 8.63633 12.5 9.16677H13.8333C13.8333 8.28271 13.4821 7.43485 12.857 6.80972C12.2319 6.18459 11.384 5.8334 10.5 5.8334V7.16675ZM10.5 5.8334C9.61594 5.8334 8.76809 6.18459 8.14297 6.80972C7.51785 7.43485 7.16666 8.28271 7.16666 9.16677H8.5C8.5 8.63633 8.71071 8.12762 9.08578 7.75254C9.46085 7.37746 9.96956 7.16675 10.5 7.16675V5.8334ZM10.5 16.5002C11.9187 16.5002 13.2227 16.0069 14.2507 15.1842L13.416 14.1442C12.616 14.7842 11.604 15.1668 10.5 15.1668V16.5002ZM6.74933 15.1842C7.776 16.0069 9.08266 16.5002 10.5 16.5002V15.1668C9.4397 15.1691 8.4106 14.8082 7.584 14.1442L6.74933 15.1842Z" fill="black" fill-opacity="0.74"/>
</svg>
