<svg width="35" height="35" viewBox="0 0 35 35" fill="none" xmlns="http://www.w3.org/2000/svg">
<rect width="35" height="35" rx="17.5" fill="#E4E6F0"/>
<path d="M22.3045 20.1701L21.2368 19.1025L23.3721 16.9656C25.142 15.1973 25.3806 12.5681 23.9067 11.0927C22.4313 9.61885 19.8022 9.85745 18.0323 11.6273L15.8985 13.7626L14.8308 12.695L16.9662 10.5597C19.3265 8.20083 22.9115 7.96223 24.9759 10.0251C27.0402 12.0894 26.8001 15.6745 24.4413 18.0348L22.306 20.1701H22.3045ZM20.1691 22.3054L18.0338 24.4408C15.6735 26.7996 12.0884 27.0382 10.0241 24.9754C7.95975 22.911 8.19986 19.326 10.5587 16.9656L12.694 14.8303L13.7617 15.898L11.6263 18.0348C9.85647 19.8032 9.61787 22.4323 11.0918 23.9077C12.5672 25.3816 15.1963 25.143 16.9662 23.3731L19.1015 21.2378L20.1691 22.3054ZM20.1691 13.7626L21.2368 14.8303L14.8293 21.2378L13.7617 20.1701L20.1691 13.7626Z" fill="#4456A5"/>
</svg>
