<svg width="20" height="21" viewBox="0 0 20 21" fill="none" xmlns="http://www.w3.org/2000/svg">
<path d="M10 12.1116C10.1978 12.1116 10.3911 12.0529 10.5556 11.943C10.72 11.8332 10.8482 11.677 10.9239 11.4943C10.9996 11.3115 11.0194 11.1105 10.9808 10.9165C10.9422 10.7225 10.847 10.5443 10.7071 10.4045C10.5673 10.2646 10.3891 10.1694 10.1951 10.1308C10.0011 10.0922 9.80004 10.112 9.61732 10.1877C9.43459 10.2634 9.27841 10.3916 9.16853 10.556C9.05865 10.7205 9 10.9138 9 11.1116C9 11.3768 9.10536 11.6311 9.29289 11.8187C9.48043 12.0062 9.73478 12.1116 10 12.1116ZM15 12.1116C15.1978 12.1116 15.3911 12.0529 15.5556 11.943C15.72 11.8332 15.8482 11.677 15.9239 11.4943C15.9996 11.3115 16.0194 11.1105 15.9808 10.9165C15.9422 10.7225 15.847 10.5443 15.7071 10.4045C15.5673 10.2646 15.3891 10.1694 15.1951 10.1308C15.0011 10.0922 14.8 10.112 14.6173 10.1877C14.4346 10.2634 14.2784 10.3916 14.1685 10.556C14.0586 10.7205 14 10.9138 14 11.1116C14 11.3768 14.1054 11.6311 14.2929 11.8187C14.4804 12.0062 14.7348 12.1116 15 12.1116ZM10 16.1116C10.1978 16.1116 10.3911 16.0529 10.5556 15.943C10.72 15.8332 10.8482 15.677 10.9239 15.4943C10.9996 15.3115 11.0194 15.1105 10.9808 14.9165C10.9422 14.7225 10.847 14.5443 10.7071 14.4045C10.5673 14.2646 10.3891 14.1694 10.1951 14.1308C10.0011 14.0922 9.80004 14.112 9.61732 14.1877C9.43459 14.2634 9.27841 14.3916 9.16853 14.556C9.05865 14.7205 9 14.9138 9 15.1116C9 15.3768 9.10536 15.6311 9.29289 15.8187C9.48043 16.0062 9.73478 16.1116 10 16.1116ZM15 16.1116C15.1978 16.1116 15.3911 16.0529 15.5556 15.943C15.72 15.8332 15.8482 15.677 15.9239 15.4943C15.9996 15.3115 16.0194 15.1105 15.9808 14.9165C15.9422 14.7225 15.847 14.5443 15.7071 14.4045C15.5673 14.2646 15.3891 14.1694 15.1951 14.1308C15.0011 14.0922 14.8 14.112 14.6173 14.1877C14.4346 14.2634 14.2784 14.3916 14.1685 14.556C14.0586 14.7205 14 14.9138 14 15.1116C14 15.3768 14.1054 15.6311 14.2929 15.8187C14.4804 16.0062 14.7348 16.1116 15 16.1116ZM5 12.1116C5.19778 12.1116 5.39112 12.0529 5.55557 11.943C5.72002 11.8332 5.84819 11.677 5.92388 11.4943C5.99957 11.3115 6.01937 11.1105 5.98079 10.9165C5.9422 10.7225 5.84696 10.5443 5.70711 10.4045C5.56725 10.2646 5.38907 10.1694 5.19509 10.1308C5.00111 10.0922 4.80004 10.112 4.61732 10.1877C4.43459 10.2634 4.27841 10.3916 4.16853 10.556C4.05865 10.7205 4 10.9138 4 11.1116C4 11.3768 4.10536 11.6311 4.29289 11.8187C4.48043 12.0062 4.73478 12.1116 5 12.1116ZM17 2.11157H16V1.11157C16 0.846356 15.8946 0.592002 15.7071 0.404465C15.5196 0.216929 15.2652 0.111572 15 0.111572C14.7348 0.111572 14.4804 0.216929 14.2929 0.404465C14.1054 0.592002 14 0.846356 14 1.11157V2.11157H6V1.11157C6 0.846356 5.89464 0.592002 5.70711 0.404465C5.51957 0.216929 5.26522 0.111572 5 0.111572C4.73478 0.111572 4.48043 0.216929 4.29289 0.404465C4.10536 0.592002 4 0.846356 4 1.11157V2.11157H3C2.20435 2.11157 1.44129 2.42764 0.87868 2.99025C0.316071 3.55286 0 4.31592 0 5.11157V17.1116C0 17.9072 0.316071 18.6703 0.87868 19.2329C1.44129 19.7955 2.20435 20.1116 3 20.1116H17C17.7956 20.1116 18.5587 19.7955 19.1213 19.2329C19.6839 18.6703 20 17.9072 20 17.1116V5.11157C20 4.31592 19.6839 3.55286 19.1213 2.99025C18.5587 2.42764 17.7956 2.11157 17 2.11157ZM18 17.1116C18 17.3768 17.8946 17.6311 17.7071 17.8187C17.5196 18.0062 17.2652 18.1116 17 18.1116H3C2.73478 18.1116 2.48043 18.0062 2.29289 17.8187C2.10536 17.6311 2 17.3768 2 17.1116V8.11157H18V17.1116ZM18 6.11157H2V5.11157C2 4.84636 2.10536 4.592 2.29289 4.40447C2.48043 4.21693 2.73478 4.11157 3 4.11157H17C17.2652 4.11157 17.5196 4.21693 17.7071 4.40447C17.8946 4.592 18 4.84636 18 5.11157V6.11157ZM5 16.1116C5.19778 16.1116 5.39112 16.0529 5.55557 15.943C5.72002 15.8332 5.84819 15.677 5.92388 15.4943C5.99957 15.3115 6.01937 15.1105 5.98079 14.9165C5.9422 14.7225 5.84696 14.5443 5.70711 14.4045C5.56725 14.2646 5.38907 14.1694 5.19509 14.1308C5.00111 14.0922 4.80004 14.112 4.61732 14.1877C4.43459 14.2634 4.27841 14.3916 4.16853 14.556C4.05865 14.7205 4 14.9138 4 15.1116C4 15.3768 4.10536 15.6311 4.29289 15.8187C4.48043 16.0062 4.73478 16.1116 5 16.1116Z" fill="black" fill-opacity="0.74"/>
</svg>
