<svg width="20" height="20" viewBox="0 0 20 20" fill="none" xmlns="http://www.w3.org/2000/svg">
<path d="M10.4498 1.90361C9.64835 1.89127 8.84669 1.91139 8.04682 1.96391C4.28119 2.21411 1.28236 5.25525 1.03576 9.07399C0.988081 9.82924 0.988081 10.5868 1.03576 11.342C1.12576 12.7325 1.74046 14.0204 2.46497 15.1077C2.88527 15.8682 2.60807 16.8177 2.16977 17.6484C1.85476 18.2469 1.69636 18.5457 1.82326 18.7617C1.94927 18.9777 2.23277 18.9849 2.79887 18.9984C3.91938 19.0254 4.67449 18.7086 5.2739 18.2667C5.6132 18.0156 5.7833 17.8905 5.9003 17.8761C6.0173 17.8617 6.2486 17.9571 6.70941 18.1461C7.12341 18.3171 7.60492 18.4224 8.04592 18.4521C9.32843 18.5367 10.6685 18.5367 11.9538 18.4521C15.7185 18.2019 18.7173 15.1599 18.9639 11.342C19.0017 10.7525 19.0098 10.1468 18.9882 9.55009M12.6999 4.15003H18.9999M15.8499 1V7.30007M9.99534 10.4501H10.0043M13.5918 10.4501H13.5999M6.39981 10.4501H6.40791" stroke="#4456A5" stroke-width="1.5" stroke-linecap="round" stroke-linejoin="round"/>
</svg>
