<svg width="24" height="25" viewBox="0 0 24 25" fill="none" xmlns="http://www.w3.org/2000/svg">
<rect y="0.280273" width="24" height="24" rx="12" fill="#D9D9D9" fill-opacity="0.44"/>
<path d="M10.6 8.08008C10.4763 8.08008 10.3576 8.12924 10.2701 8.21676C10.1825 8.30428 10.1334 8.42298 10.1334 8.54674C10.1334 8.67051 10.1825 8.78921 10.2701 8.87673C10.3576 8.96425 10.4763 9.01341 10.6 9.01341H13.4C13.5238 9.01341 13.6425 8.96425 13.73 8.87673C13.8175 8.78921 13.8667 8.67051 13.8667 8.54674C13.8667 8.42298 13.8175 8.30428 13.73 8.21676C13.6425 8.12924 13.5238 8.08008 13.4 8.08008H10.6ZM9.66672 13.2134C9.66672 13.4609 9.56838 13.6983 9.39335 13.8734C9.21831 14.0484 8.98092 14.1467 8.73338 14.1467C8.48585 14.1467 8.24845 14.0484 8.07342 13.8734C7.89838 13.6983 7.80005 13.4609 7.80005 13.2134C7.80005 12.9659 7.89838 12.7285 8.07342 12.5534C8.24845 12.3784 8.48585 12.2801 8.73338 12.2801C8.98092 12.2801 9.21831 12.3784 9.39335 12.5534C9.56838 12.7285 9.66672 12.9659 9.66672 13.2134ZM9.66672 16.4801C9.66672 16.7276 9.56838 16.965 9.39335 17.14C9.21831 17.3151 8.98092 17.4134 8.73338 17.4134C8.48585 17.4134 8.24845 17.3151 8.07342 17.14C7.89838 16.965 7.80005 16.7276 7.80005 16.4801C7.80005 16.2325 7.89838 15.9951 8.07342 15.8201C8.24845 15.6451 8.48585 15.5467 8.73338 15.5467C8.98092 15.5467 9.21831 15.6451 9.39335 15.8201C9.56838 15.9951 9.66672 16.2325 9.66672 16.4801ZM12 14.1467C12.2476 14.1467 12.485 14.0484 12.66 13.8734C12.835 13.6983 12.9334 13.4609 12.9334 13.2134C12.9334 12.9659 12.835 12.7285 12.66 12.5534C12.485 12.3784 12.2476 12.2801 12 12.2801C11.7525 12.2801 11.5151 12.3784 11.3401 12.5534C11.165 12.7285 11.0667 12.9659 11.0667 13.2134C11.0667 13.4609 11.165 13.6983 11.3401 13.8734C11.5151 14.0484 11.7525 14.1467 12 14.1467ZM12.9334 16.4801C12.9334 16.7276 12.835 16.965 12.66 17.14C12.485 17.3151 12.2476 17.4134 12 17.4134C11.7525 17.4134 11.5151 17.3151 11.3401 17.14C11.165 16.965 11.0667 16.7276 11.0667 16.4801C11.0667 16.2325 11.165 15.9951 11.3401 15.8201C11.5151 15.6451 11.7525 15.5467 12 15.5467C12.2476 15.5467 12.485 15.6451 12.66 15.8201C12.835 15.9951 12.9334 16.2325 12.9334 16.4801ZM15.2667 14.1467C15.5142 14.1467 15.7516 14.0484 15.9267 13.8734C16.1017 13.6983 16.2 13.4609 16.2 13.2134C16.2 12.9659 16.1017 12.7285 15.9267 12.5534C15.7516 12.3784 15.5142 12.2801 15.2667 12.2801C15.0192 12.2801 14.7818 12.3784 14.6067 12.5534C14.4317 12.7285 14.3334 12.9659 14.3334 13.2134C14.3334 13.4609 14.4317 13.6983 14.6067 13.8734C14.7818 14.0484 15.0192 14.1467 15.2667 14.1467Z" fill="#4CAF50"/>
<path fill-rule="evenodd" clip-rule="evenodd" d="M8.26667 4.58008C8.39043 4.58008 8.50913 4.62924 8.59665 4.71676C8.68417 4.80428 8.73333 4.92298 8.73333 5.04674V5.98008H15.2667V5.04674C15.2667 4.92298 15.3158 4.80428 15.4033 4.71676C15.4909 4.62924 15.6096 4.58008 15.7333 4.58008C15.8571 4.58008 15.9758 4.62924 16.0633 4.71676C16.1508 4.80428 16.2 4.92298 16.2 5.04674V5.98288C16.4284 5.98474 16.6318 5.99283 16.8104 6.00714C17.1511 6.03514 17.4497 6.09394 17.726 6.23394C18.1649 6.45785 18.5217 6.81495 18.7452 7.25408C18.8861 7.53034 18.9449 7.82901 18.9729 8.16874C19 8.50008 19 8.90794 19 9.41381V16.5463C19 17.0522 19 17.461 18.9729 17.7905C18.9449 18.1311 18.8861 18.4298 18.7452 18.7061C18.5215 19.1449 18.1648 19.5016 17.726 19.7253C17.4497 19.8662 17.1511 19.925 16.8113 19.953C16.48 19.9801 16.0721 19.9801 15.5672 19.9801H8.43373C7.92787 19.9801 7.51907 19.9801 7.1896 19.953C6.84893 19.925 6.55027 19.8662 6.274 19.7253C5.83487 19.5018 5.47777 19.145 5.25387 18.7061C5.11387 18.4298 5.05507 18.1311 5.02707 17.7914C5 17.4601 5 17.0513 5 16.5454V9.41475C5 8.97141 5 8.60461 5.01867 8.29754L5.02707 8.17061C5.05507 7.82994 5.11387 7.53128 5.25387 7.25501C5.47761 6.81574 5.83473 6.45862 6.274 6.23488C6.55027 6.09488 6.84893 6.03608 7.18867 6.00808C7.36849 5.99377 7.57227 5.98568 7.8 5.98381V5.04674C7.8 4.92298 7.84917 4.80428 7.93668 4.71676C8.0242 4.62924 8.1429 4.58008 8.26667 4.58008ZM7.8 7.38008V6.91621C7.62155 6.91768 7.44319 6.92484 7.2652 6.93768C6.98333 6.96008 6.82093 7.00301 6.69773 7.06554C6.43407 7.19981 6.21973 7.41415 6.08547 7.67781C6.02293 7.80101 5.98 7.96341 5.9576 8.24528C5.93333 8.53368 5.93333 8.90328 5.93333 9.43341V9.94674H18.0667V9.43341C18.0667 8.90328 18.0667 8.53368 18.0424 8.24528C18.02 7.96341 17.9771 7.80101 17.9145 7.67781C17.7803 7.41415 17.5659 7.19981 17.3023 7.06554C17.1791 7.00301 17.0167 6.96008 16.7348 6.93768C16.5568 6.92484 16.3784 6.91768 16.2 6.91621V7.38008C16.2 7.50385 16.1508 7.62254 16.0633 7.71006C15.9758 7.79758 15.8571 7.84674 15.7333 7.84674C15.6096 7.84674 15.4909 7.79758 15.4033 7.71006C15.3158 7.62254 15.2667 7.50385 15.2667 7.38008V6.91341H8.73333V7.38008C8.73333 7.50385 8.68417 7.62254 8.59665 7.71006C8.50913 7.79758 8.39043 7.84674 8.26667 7.84674C8.1429 7.84674 8.0242 7.79758 7.93668 7.71006C7.84917 7.62254 7.8 7.50385 7.8 7.38008ZM18.0667 10.8801H5.93333V16.5267C5.93333 17.0569 5.93333 17.4274 5.9576 17.7149C5.98 17.9967 6.02293 18.1591 6.08547 18.2823C6.21973 18.546 6.43407 18.7603 6.69773 18.8946C6.82093 18.9571 6.98333 19.0001 7.2652 19.0225C7.5536 19.0467 7.9232 19.0467 8.45333 19.0467H15.5467C16.0768 19.0467 16.4473 19.0467 16.7348 19.0225C17.0167 19.0001 17.1791 18.9571 17.3023 18.8946C17.5659 18.7603 17.7803 18.546 17.9145 18.2823C17.9771 18.1591 18.02 17.9967 18.0424 17.7149C18.0667 17.4274 18.0667 17.0569 18.0667 16.5267V10.8801Z" fill="#4CAF50"/>
</svg>
