<svg width="20" height="22" viewBox="0 0 20 22" fill="none" xmlns="http://www.w3.org/2000/svg">
<path d="M6.08695 10.1538C4.93384 10.1538 3.82795 9.70811 3.01258 8.91468C2.1972 8.12126 1.73913 7.04515 1.73913 5.92308V2.53846C1.73913 2.31405 1.83074 2.09883 1.99382 1.94014C2.15689 1.78146 2.37807 1.69231 2.60869 1.69231H3.47826C3.70888 1.69231 3.93006 1.60316 4.09313 1.44448C4.25621 1.28579 4.34782 1.07057 4.34782 0.846154C4.34782 0.62174 4.25621 0.406517 4.09313 0.247833C3.93006 0.0891481 3.70888 0 3.47826 0H2.60869C1.91683 0 1.25329 0.267444 0.764069 0.743498C0.274844 1.21955 0 1.86522 0 2.53846V5.92308C0.00111776 6.87901 0.240671 7.82039 0.698086 8.66638C1.1555 9.51236 1.81711 10.2377 2.62609 10.78C3.40411 11.4462 4.03497 12.2591 4.48041 13.1697C4.92584 14.0802 5.17657 15.0693 5.21739 16.0769C5.21739 17.6478 5.85869 19.1544 7.00022 20.2652C8.14174 21.376 9.68998 22 11.3043 22C12.9187 22 14.4669 21.376 15.6085 20.2652C16.75 19.1544 17.3913 17.6478 17.3913 16.0769V15.1123C18.211 14.9064 18.9254 14.4166 19.4005 13.7348C19.8757 13.053 20.0789 12.2259 19.9723 11.4087C19.8656 10.5915 19.4563 9.84015 18.8211 9.29557C18.1858 8.751 17.3683 8.45055 16.5217 8.45055C15.6751 8.45055 14.8576 8.751 14.2224 9.29557C13.5872 9.84015 13.1779 10.5915 13.0712 11.4087C12.9645 12.2259 13.1678 13.053 13.6429 13.7348C14.1181 14.4166 14.8325 14.9064 15.6522 15.1123V16.0769C15.6522 17.199 15.1941 18.2751 14.3787 19.0685C13.5633 19.862 12.4575 20.3077 11.3043 20.3077C10.1512 20.3077 9.04534 19.862 8.22997 19.0685C7.41459 18.2751 6.95652 17.199 6.95652 16.0769C6.99953 15.068 7.25298 14.0782 7.70144 13.1676C8.1499 12.257 8.78401 11.4447 9.56521 10.78C10.371 10.2358 11.0292 9.50965 11.4835 8.66379C11.9378 7.81792 12.1747 6.87751 12.1739 5.92308V2.53846C12.1739 1.86522 11.8991 1.21955 11.4098 0.743498C10.9206 0.267444 10.2571 0 9.56521 0H8.69565C8.46502 0 8.24385 0.0891481 8.08077 0.247833C7.9177 0.406517 7.82608 0.62174 7.82608 0.846154C7.82608 1.07057 7.9177 1.28579 8.08077 1.44448C8.24385 1.60316 8.46502 1.69231 8.69565 1.69231H9.56521C9.79584 1.69231 10.017 1.78146 10.1801 1.94014C10.3432 2.09883 10.4348 2.31405 10.4348 2.53846V5.92308C10.4348 6.47867 10.3223 7.02882 10.1038 7.54212C9.88532 8.05542 9.56506 8.52182 9.16133 8.91468C8.7576 9.30755 8.2783 9.61918 7.75079 9.8318C7.22329 10.0444 6.65792 10.1538 6.08695 10.1538ZM16.5217 13.5385C16.0605 13.5385 15.6181 13.3602 15.292 13.0428C14.9658 12.7254 14.7826 12.295 14.7826 11.8462C14.7826 11.3973 14.9658 10.9669 15.292 10.6495C15.6181 10.3321 16.0605 10.1538 16.5217 10.1538C16.983 10.1538 17.4253 10.3321 17.7515 10.6495C18.0776 10.9669 18.2609 11.3973 18.2609 11.8462C18.2609 12.295 18.0776 12.7254 17.7515 13.0428C17.4253 13.3602 16.983 13.5385 16.5217 13.5385Z" fill="black" fill-opacity="0.74"/>
</svg>
