<svg width="22" height="22" viewBox="0 0 22 22" fill="none" xmlns="http://www.w3.org/2000/svg">
<path d="M9.00028 17H13.0001M1.35153 12.214C0.99854 9.916 0.821546 8.768 1.25653 7.749C1.69052 6.731 2.65449 6.034 4.58142 4.641L6.02138 3.6C8.4183 1.867 9.61726 1 11.0002 1C12.3832 1 13.5821 1.867 15.979 3.6L17.419 4.641C19.3459 6.034 20.3089 6.731 20.7439 7.749C21.1779 8.768 21.0019 9.916 20.6489 12.213L20.3479 14.173C19.8479 17.429 19.5969 19.057 18.429 20.029C17.261 21.001 15.5541 21 12.1392 21H9.86025C6.44536 21 4.73842 21 3.57046 20.029C2.40249 19.057 2.1525 17.429 1.65152 14.172L1.35153 12.214Z" stroke="#4456A5" stroke-width="1.5" stroke-linecap="round" stroke-linejoin="round"/>
</svg>
