<svg width="20" height="14" viewBox="0 0 20 14" fill="none" xmlns="http://www.w3.org/2000/svg">
<path d="M0.625008 13.5C0.447508 13.5 0.299175 13.4404 0.180008 13.3211C0.0608419 13.2019 0.000841894 13.0551 8.56163e-06 12.8808C-0.000824771 12.7064 0.0591753 12.5601 0.180008 12.4416C0.300842 12.3232 0.449175 12.2644 0.625008 12.2653H19.375C19.5525 12.2653 19.7008 12.3245 19.82 12.4429C19.94 12.5613 20 12.7081 20 12.8832C20 13.0584 19.94 13.2048 19.82 13.3224C19.7 13.44 19.5517 13.4988 19.375 13.4988L0.625008 13.5ZM0.625008 7.61614C0.447508 7.61614 0.299175 7.55693 0.180008 7.43851C0.0608419 7.3201 0.000841894 7.17331 8.56163e-06 6.99815C-0.000824771 6.82299 0.0591753 6.67661 0.180008 6.55902C0.300842 6.44142 0.449175 6.38263 0.625008 6.38263H19.375C19.5525 6.38263 19.7008 6.44183 19.82 6.56025C19.9392 6.67867 19.9992 6.82546 20 7.00062C20.0008 7.17578 19.9408 7.32215 19.82 7.43975C19.6992 7.55734 19.5508 7.61614 19.375 7.61614H0.625008ZM0.625008 1.73228C0.447508 1.73228 0.299175 1.67348 0.180008 1.55589C0.0600086 1.43747 8.56163e-06 1.29068 8.56163e-06 1.11552C8.56163e-06 0.940364 0.0600086 0.793988 0.180008 0.676393C0.300008 0.558798 0.448342 0.5 0.625008 0.5H19.375C19.5525 0.5 19.7008 0.559209 19.82 0.677626C19.9392 0.796043 19.9992 0.942009 20 1.11552C20.0008 1.28904 19.9408 1.43541 19.82 1.55465C19.6992 1.67389 19.5508 1.7331 19.375 1.73228H0.625008Z" fill="#4456A5"/>
</svg>
