<svg width="21" height="23" viewBox="0 0 21 23" fill="none" xmlns="http://www.w3.org/2000/svg">
<path d="M16.134 10.5017C16.715 15.8767 19 17.5017 19 17.5017H1C1 17.5017 4 15.3687 4 7.90171C4 6.20471 4.632 4.57671 5.757 3.37671C6.882 2.17671 8.41 1.50171 10 1.50171C10.338 1.50171 10.6713 1.53171 11 1.59171M11.73 20.5017C11.5542 20.8048 11.3018 21.0564 10.9982 21.2312C10.6946 21.4061 10.3504 21.4982 10 21.4982C9.64962 21.4982 9.30539 21.4061 9.00177 21.2312C8.69816 21.0564 8.44581 20.8048 8.27 20.5017M17 7.50171C17.7956 7.50171 18.5587 7.18564 19.1213 6.62303C19.6839 6.06042 20 5.29736 20 4.50171C20 3.70606 19.6839 2.943 19.1213 2.38039C18.5587 1.81778 17.7956 1.50171 17 1.50171C16.2044 1.50171 15.4413 1.81778 14.8787 2.38039C14.3161 2.943 14 3.70606 14 4.50171C14 5.29736 14.3161 6.06042 14.8787 6.62303C15.4413 7.18564 16.2044 7.50171 17 7.50171Z" stroke="#4456A5" stroke-width="1.5" stroke-linecap="round" stroke-linejoin="round"/>
</svg>
