<svg width="24" height="24" viewBox="0 0 24 24" fill="none" xmlns="http://www.w3.org/2000/svg">
<circle cx="12" cy="12" r="12" fill="#E4E6F0"/>
<path d="M10.2918 8.04481C11.052 6.6816 11.4318 6 12 6C12.5682 6 12.948 6.6816 13.7082 8.04481L13.905 8.39762C14.1209 8.78522 14.2289 8.97902 14.3969 9.10682C14.5649 9.23462 14.7749 9.28202 15.1949 9.37682L15.5765 9.46322C17.0525 9.79742 17.7899 9.96423 17.9657 10.5288C18.1409 11.0928 17.6381 11.6814 16.6319 12.858L16.3715 13.1622C16.0859 13.4964 15.9425 13.6638 15.8783 13.8703C15.8141 14.0773 15.8357 14.3005 15.8789 14.7463L15.9185 15.1525C16.0703 16.7227 16.1465 17.5075 15.6869 17.8561C15.2273 18.2047 14.5361 17.8867 13.155 17.2507L12.7968 17.0863C12.4044 16.9051 12.2082 16.8151 12 16.8151C11.7918 16.8151 11.5956 16.9051 11.2032 17.0863L10.8456 17.2507C9.46386 17.8867 8.77268 18.2047 8.31369 17.8567C7.8535 17.5075 7.9297 16.7227 8.08149 15.1525L8.12109 14.7469C8.16429 14.3005 8.18589 14.0773 8.12109 13.8709C8.05749 13.6638 7.9141 13.4964 7.6285 13.1628L7.36811 12.858C6.36193 11.682 5.85914 11.0934 6.03434 10.5288C6.20954 9.96423 6.94812 9.79682 8.42408 9.46322L8.80567 9.37682C9.22506 9.28202 9.43446 9.23462 9.60306 9.10682C9.77165 8.97902 9.87905 8.78522 10.095 8.39762L10.2918 8.04481Z" stroke="#FFC107" stroke-width="1.5"/>
</svg>
