<svg width="21" height="16" viewBox="0 0 21 16" fill="none" xmlns="http://www.w3.org/2000/svg">
<path d="M14.505 11.75C14.3392 11.75 14.1803 11.8158 14.0631 11.9331C13.9459 12.0503 13.88 12.2092 13.88 12.375C13.88 12.5408 13.9459 12.6997 14.0631 12.8169C14.1803 12.9342 14.3392 13 14.505 13H17.005C17.1708 13 17.3297 12.9342 17.4469 12.8169C17.5642 12.6997 17.63 12.5408 17.63 12.375C17.63 12.2092 17.5642 12.0503 17.4469 11.9331C17.3297 11.8158 17.1708 11.75 17.005 11.75H14.505ZM0.130005 3.9375C0.130005 3.02582 0.492169 2.15148 1.13683 1.50682C1.78148 0.862164 2.65582 0.5 3.5675 0.5H16.6925C17.6042 0.5 18.4785 0.862164 19.1232 1.50682C19.7678 2.15148 20.13 3.02582 20.13 3.9375V12.0625C20.13 12.9742 19.7678 13.8485 19.1232 14.4932C18.4785 15.1378 17.6042 15.5 16.6925 15.5H3.5675C2.65582 15.5 1.78148 15.1378 1.13683 14.4932C0.492169 13.8485 0.130005 12.9742 0.130005 12.0625V3.9375ZM3.5675 1.75C2.98734 1.75 2.43094 1.98047 2.02071 2.3907C1.61047 2.80094 1.38 3.35734 1.38 3.9375V5.5H18.88V3.9375C18.88 3.35734 18.6495 2.80094 18.2393 2.3907C17.8291 1.98047 17.2727 1.75 16.6925 1.75H3.5675ZM18.88 6.75H1.38V12.0625C1.38 13.27 2.36 14.25 3.5675 14.25H16.6925C17.2727 14.25 17.8291 14.0195 18.2393 13.6093C18.6495 13.1991 18.88 12.6427 18.88 12.0625V6.75Z" fill="#4456A5"/>
</svg>
