<svg width="19" height="24" viewBox="0 0 19 24" fill="none" xmlns="http://www.w3.org/2000/svg">
<path d="M4.83236 0.197658L3.76296 0.519823C2.81075 0.80698 1.96039 1.36017 1.31196 2.1143C0.663529 2.86842 0.244021 3.79208 0.10281 4.77657C-0.340166 7.861 0.650191 11.4675 3.03809 15.6034C5.42002 19.7289 8.04208 22.3867 10.9281 23.5501C11.8554 23.9238 12.8706 24.0234 13.8528 23.837C14.8351 23.6506 15.7431 23.1861 16.4691 22.4986L17.2775 21.732C17.8024 21.2352 18.1291 20.5647 18.1969 19.8451C18.2646 19.1255 18.0688 18.4058 17.6459 17.8198L15.6234 15.0157C15.3499 14.6372 14.9649 14.3537 14.5222 14.205C14.0796 14.0563 13.6015 14.0498 13.1549 14.1865L10.0959 15.1216L10.0168 15.1365C9.67975 15.1858 8.90118 14.4564 7.9317 12.777C6.91748 11.02 6.70867 9.99236 6.98759 9.72687L8.54322 8.27564C9.11153 7.74497 9.49972 7.04992 9.6535 6.28773C9.80727 5.52555 9.71893 4.73435 9.40084 4.02485L8.41346 1.83085C8.11656 1.17063 7.5897 0.6409 6.9311 0.340413C6.2725 0.0399269 5.52561 -0.0108111 4.83236 0.197658ZM7.05619 2.44237L8.04058 4.63637C8.23162 5.06192 8.28487 5.53654 8.19287 5.99385C8.10088 6.45115 7.86824 6.86826 7.52751 7.18684L5.9674 8.63956C4.96809 9.58517 5.2992 11.199 6.64156 13.5227C7.90337 15.7093 9.05481 16.7891 10.2928 16.6012L10.4777 16.5624L13.592 15.6123C13.7408 15.5666 13.9003 15.5686 14.0479 15.6181C14.1956 15.6676 14.324 15.7621 14.4153 15.8883L16.4377 18.6923C16.6495 18.9853 16.7477 19.3453 16.7139 19.7052C16.6802 20.0652 16.5168 20.4006 16.2543 20.6491L15.4444 21.4158C14.9259 21.9065 14.2774 22.2381 13.5759 22.3711C12.8745 22.5041 12.1496 22.4329 11.4874 22.166C8.95488 21.1458 6.56102 18.7191 4.33122 14.8576C2.09546 10.9872 1.19012 7.69544 1.5794 4.98836C1.68017 4.28502 1.97979 3.6251 2.44301 3.08632C2.90622 2.54754 3.51372 2.15231 4.194 1.94719L5.26341 1.62503C5.61012 1.52084 5.98289 1.54632 6.3122 1.69671C6.64152 1.84709 6.90489 2.11212 7.05321 2.44237" fill="#4CAF50"/>
</svg>
