<svg width="22" height="22" viewBox="0 0 22 22" fill="none" xmlns="http://www.w3.org/2000/svg">
<path d="M1.13 18.5C1.13 17.1739 1.65679 15.9021 2.59447 14.9645C3.53215 14.0268 4.80392 13.5 6.13 13.5H16.13C17.4561 13.5 18.7279 14.0268 19.6655 14.9645C20.6032 15.9021 21.13 17.1739 21.13 18.5C21.13 19.163 20.8666 19.7989 20.3978 20.2678C19.9289 20.7366 19.293 21 18.63 21H3.63C2.96696 21 2.33108 20.7366 1.86224 20.2678C1.3934 19.7989 1.13 19.163 1.13 18.5Z" stroke="#4456A5" stroke-linejoin="round"/>
<path d="M11.13 8.5C13.2011 8.5 14.88 6.82107 14.88 4.75C14.88 2.67893 13.2011 1 11.13 1C9.05894 1 7.38 2.67893 7.38 4.75C7.38 6.82107 9.05894 8.5 11.13 8.5Z" stroke="#4456A5"/>
</svg>
