<svg width="22" height="24" viewBox="0 0 22 24" fill="none" xmlns="http://www.w3.org/2000/svg">
<path d="M5.24222 23.223V20.0485C4.91111 16.7407 1 14.9696 1 9.88963C1 4.81185 4.03 0.938517 10.0911 1.00074C14.4544 1.04741 18.5756 3.54074 18.5756 8.62074L21 12.4296C21 14.9696 18.5756 14.9696 18.5756 14.9696C18.5756 14.9696 19.1822 21.3185 13.7267 21.3185V23.223" stroke="black" stroke-opacity="0.74" stroke-width="1.5" stroke-linecap="round" stroke-linejoin="round"/>
<path d="M9.88885 12.1119C10.4782 12.1119 11.0434 11.8778 11.4602 11.4611C11.8769 11.0443 12.1111 10.4791 12.1111 9.8897C12.1111 9.30033 11.8769 8.7351 11.4602 8.31835C11.0434 7.90161 10.4782 7.66748 9.88885 7.66748C9.29948 7.66748 8.73425 7.90161 8.3175 8.31835C7.90075 8.7351 7.66663 9.30033 7.66663 9.8897C7.66663 10.4791 7.90075 11.0443 8.3175 11.4611C8.73425 11.8778 9.29948 12.1119 9.88885 12.1119Z" stroke="black" stroke-opacity="0.74" stroke-width="1.5" stroke-linecap="round" stroke-linejoin="round"/>
<path d="M9.88888 13.2231C10.7729 13.2231 11.6208 12.8719 12.2459 12.2468C12.871 11.6216 13.2222 10.7738 13.2222 9.88973C13.2222 9.00567 12.871 8.15783 12.2459 7.53271C11.6208 6.90759 10.7729 6.5564 9.88888 6.5564C9.00482 6.5564 8.15697 6.90759 7.53185 7.53271C6.90673 8.15783 6.55554 9.00567 6.55554 9.88973C6.55554 10.7738 6.90673 11.6216 7.53185 12.2468C8.15697 12.8719 9.00482 13.2231 9.88888 13.2231Z" stroke="black" stroke-opacity="0.74" stroke-width="1.5" stroke-linecap="round" stroke-linejoin="round" stroke-dasharray="0.3 2"/>
</svg>
