<svg width="14" height="15" viewBox="0 0 14 15" fill="none" xmlns="http://www.w3.org/2000/svg">
<path d="M5.29184 3.70399C6.05202 2.34078 6.43181 1.65918 7 1.65918C7.56819 1.65918 7.94798 2.34078 8.70816 3.70399L8.90495 4.05679C9.12095 4.4444 9.22895 4.6382 9.39694 4.766C9.56494 4.8938 9.77493 4.9412 10.1949 5.036L10.5765 5.1224C12.0525 5.4566 12.7899 5.62341 12.9657 6.18801C13.1409 6.75201 12.6381 7.34062 11.6319 8.51722L11.3715 8.82143C11.0859 9.15563 10.9425 9.32303 10.8783 9.52943C10.8141 9.73643 10.8357 9.95963 10.8789 10.4054L10.9185 10.8116C11.0703 12.3818 11.1465 13.1667 10.6869 13.5153C10.2273 13.8639 9.53614 13.5459 8.15497 12.9099L7.79678 12.7455C7.40439 12.5642 7.20819 12.4742 7 12.4742C6.7918 12.4742 6.59561 12.5642 6.20322 12.7455L5.84563 12.9099C4.46386 13.5459 3.77268 13.8639 3.31369 13.5159C2.8535 13.1667 2.9297 12.3818 3.08149 10.8116L3.12109 10.406C3.16429 9.95963 3.18589 9.73643 3.12109 9.53003C3.05749 9.32303 2.9141 9.15563 2.6285 8.82203L2.36811 8.51722C1.36193 7.34122 0.859144 6.75261 1.03434 6.18801C1.20954 5.62341 1.94812 5.456 3.42408 5.1224L3.80567 5.036C4.22506 4.9412 4.43446 4.8938 4.60306 4.766C4.77165 4.6382 4.87905 4.4444 5.09504 4.05679L5.29184 3.70399Z" fill="#FFC107" stroke="#FFC107" stroke-width="1.5"/>
</svg>
