<svg width="20" height="24" viewBox="0 0 20 24" fill="none" xmlns="http://www.w3.org/2000/svg">
<path d="M15.424 1.41162V3.52926M10.1299 1.41162V3.52926M4.83577 1.41162V3.52926M5.89459 15.1763H10.1299M5.89459 9.88219H14.3652M1.12988 16.2351V8.82337C1.12988 5.82902 1.12988 4.33079 2.06059 3.40114C2.99024 2.47044 4.48847 2.47044 7.48282 2.47044H12.7769C15.7713 2.47044 17.2695 2.47044 18.1992 3.40114C19.1299 4.33079 19.1299 5.82902 19.1299 8.82337V11.9998C19.1299 16.9911 19.1299 19.4867 17.5787 21.0369C16.0296 22.588 13.534 22.588 8.54165 22.588H7.48282C4.48847 22.588 2.99024 22.588 2.06059 21.6573C1.12988 20.7277 1.12988 19.2295 1.12988 16.2351Z" stroke="#4456A5" stroke-width="1.5" stroke-linecap="round" stroke-linejoin="round"/>
</svg>
