<svg width="21" height="23" viewBox="0 0 21 23" fill="none" xmlns="http://www.w3.org/2000/svg">
<path d="M19.6492 14.8224L17.6336 13.3827C17.9659 12.1867 17.988 10.891 17.6336 9.59523L19.6492 8.17769L18.0434 5.40906L15.7952 6.42792C14.9204 5.54196 13.8129 4.85533 12.5172 4.53417L12.2957 2.0867H9.08408L8.86259 4.53417C7.56687 4.85533 6.45941 5.54196 5.58452 6.42792L3.33639 5.40906L1.73059 8.17769L3.74615 9.59523C3.39177 10.891 3.41392 12.1867 3.74615 13.3827L1.73059 14.8224L3.33639 17.591L5.58452 16.5611C6.45941 17.436 7.56687 18.1005 8.86259 18.4438L9.08408 20.9134H12.2957L12.5172 18.4438C13.8129 18.1005 14.9204 17.436 15.7952 16.5611L18.0434 17.591L19.6492 14.8224ZM12.9048 0.979248C13.2038 0.979248 13.4585 1.20074 13.4585 1.48868L13.6579 3.74788C14.4995 4.05797 15.2526 4.51202 15.9281 5.05468L17.9769 4.09119C18.2316 3.9583 18.5528 4.04689 18.7078 4.30161L20.9228 8.17769C21.0778 8.41026 20.9892 8.73142 20.7456 8.89754L18.8961 10.1933C19.0401 11.0792 19.029 11.9541 18.8961 12.8068L20.7456 14.1026C20.9892 14.2687 21.0778 14.5898 20.9228 14.8224L18.7078 18.6985C18.5528 18.9311 18.2316 19.0197 17.9769 18.8868L15.9281 17.9344C15.2526 18.477 14.4995 18.92 13.6579 19.2522L13.4585 21.4671C13.4585 21.7883 13.2038 22.0209 12.9048 22.0209H8.47498C8.32812 22.0209 8.18728 21.9625 8.08343 21.8587C7.97959 21.7548 7.92125 21.614 7.92125 21.4671L7.72191 19.2522C6.88024 18.92 6.12718 18.477 5.45163 17.9344L3.40284 18.8868C3.14813 19.0197 2.82697 18.9311 2.67192 18.6985L0.457016 14.8224C0.301972 14.5898 0.390568 14.2687 0.634208 14.1026L2.48366 12.8068C2.35076 11.9541 2.33969 11.0792 2.48366 10.1933L0.634208 8.89754C0.390568 8.73142 0.301972 8.41026 0.457016 8.17769L2.67192 4.30161C2.82697 4.04689 3.14813 3.9583 3.40284 4.09119L5.45163 5.05468C6.12718 4.51202 6.88024 4.05797 7.72191 3.74788L7.92125 1.48868C7.92125 1.20074 8.17596 0.979248 8.47498 0.979248H12.9048ZM10.6899 7.62397C11.7179 7.62397 12.7038 8.03234 13.4307 8.75925C14.1576 9.48615 14.566 10.4721 14.566 11.5001C14.566 12.5281 14.1576 13.514 13.4307 14.2409C12.7038 14.9678 11.7179 15.3761 10.6899 15.3761C9.66188 15.3761 8.67598 14.9678 7.94908 14.2409C7.22217 13.514 6.8138 12.5281 6.8138 11.5001C6.8138 10.4721 7.22217 9.48615 7.94908 8.75925C8.67598 8.03234 9.66188 7.62397 10.6899 7.62397ZM10.6899 8.73142C9.9556 8.73142 9.25138 9.02312 8.73216 9.54233C8.21294 10.0616 7.92125 10.7658 7.92125 11.5001C7.92125 12.2343 8.21294 12.9386 8.73216 13.4578C9.25138 13.977 9.9556 14.2687 10.6899 14.2687C11.4242 14.2687 12.1284 13.977 12.6476 13.4578C13.1668 12.9386 13.4585 12.2343 13.4585 11.5001C13.4585 10.7658 13.1668 10.0616 12.6476 9.54233C12.1284 9.02312 11.4242 8.73142 10.6899 8.73142Z" fill="#4456A5"/>
</svg>
