<svg width="21" height="16" viewBox="0 0 21 16" fill="none" xmlns="http://www.w3.org/2000/svg">
<path d="M14.5049 11.75C14.3391 11.75 14.1802 11.8158 14.0629 11.9331C13.9457 12.0503 13.8799 12.2092 13.8799 12.375C13.8799 12.5408 13.9457 12.6997 14.0629 12.8169C14.1802 12.9342 14.3391 13 14.5049 13H17.0049C17.1706 13 17.3296 12.9342 17.4468 12.8169C17.564 12.6997 17.6299 12.5408 17.6299 12.375C17.6299 12.2092 17.564 12.0503 17.4468 11.9331C17.3296 11.8158 17.1706 11.75 17.0049 11.75H14.5049ZM0.129883 3.9375C0.129883 3.02582 0.492047 2.15148 1.1367 1.50682C1.78136 0.862164 2.6557 0.5 3.56738 0.5H16.6924C17.6041 0.5 18.4784 0.862164 19.1231 1.50682C19.7677 2.15148 20.1299 3.02582 20.1299 3.9375V12.0625C20.1299 12.9742 19.7677 13.8485 19.1231 14.4932C18.4784 15.1378 17.6041 15.5 16.6924 15.5H3.56738C2.6557 15.5 1.78136 15.1378 1.1367 14.4932C0.492047 13.8485 0.129883 12.9742 0.129883 12.0625V3.9375ZM3.56738 1.75C2.98722 1.75 2.43082 1.98047 2.02059 2.3907C1.61035 2.80094 1.37988 3.35734 1.37988 3.9375V5.5H18.8799V3.9375C18.8799 3.35734 18.6494 2.80094 18.2392 2.3907C17.8289 1.98047 17.2725 1.75 16.6924 1.75H3.56738ZM18.8799 6.75H1.37988V12.0625C1.37988 13.27 2.35988 14.25 3.56738 14.25H16.6924C17.2725 14.25 17.8289 14.0195 18.2392 13.6093C18.6494 13.1991 18.8799 12.6427 18.8799 12.0625V6.75Z" fill="#4456A5"/>
</svg>
