<svg width="21" height="22" viewBox="0 0 21 22" fill="none" xmlns="http://www.w3.org/2000/svg">
<path d="M6.21684 10.1538C5.06372 10.1538 3.95784 9.70811 3.14246 8.91468C2.32709 8.12126 1.86901 7.04515 1.86901 5.92308V2.53846C1.86901 2.31405 1.96063 2.09883 2.1237 1.94014C2.28678 1.78146 2.50795 1.69231 2.73858 1.69231H3.60814C3.83877 1.69231 4.05994 1.60316 4.22302 1.44448C4.38609 1.28579 4.47771 1.07057 4.47771 0.846154C4.47771 0.62174 4.38609 0.406517 4.22302 0.247833C4.05994 0.0891481 3.83877 0 3.60814 0H2.73858C2.04671 0 1.38318 0.267444 0.893952 0.743498C0.404727 1.21955 0.129883 1.86522 0.129883 2.53846V5.92308C0.131001 6.87901 0.370554 7.82039 0.827969 8.66638C1.28538 9.51236 1.94699 10.2377 2.75597 10.78C3.53399 11.4462 4.16485 12.2591 4.61029 13.1697C5.05573 14.0802 5.30646 15.0693 5.34727 16.0769C5.34727 17.6478 5.98857 19.1544 7.1301 20.2652C8.27162 21.376 9.81987 22 11.4342 22C13.0486 22 14.5968 21.376 15.7384 20.2652C16.8799 19.1544 17.5212 17.6478 17.5212 16.0769V15.1123C18.3409 14.9064 19.0553 14.4166 19.5304 13.7348C20.0055 13.053 20.2088 12.2259 20.1022 11.4087C19.9955 10.5915 19.5862 9.84015 18.9509 9.29557C18.3157 8.751 17.4982 8.45055 16.6516 8.45055C15.805 8.45055 14.9875 8.751 14.3523 9.29557C13.7171 9.84015 13.3078 10.5915 13.2011 11.4087C13.0944 12.2259 13.2977 13.053 13.7728 13.7348C14.248 14.4166 14.9623 14.9064 15.7821 15.1123V16.0769C15.7821 17.199 15.324 18.2751 14.5086 19.0685C13.6932 19.862 12.5873 20.3077 11.4342 20.3077C10.2811 20.3077 9.17523 19.862 8.35985 19.0685C7.54447 18.2751 7.0864 17.199 7.0864 16.0769C7.12942 15.068 7.38286 14.0782 7.83132 13.1676C8.27979 12.257 8.9139 11.4447 9.6951 10.78C10.5009 10.2358 11.1591 9.50965 11.6134 8.66379C12.0677 7.81792 12.3046 6.87751 12.3038 5.92308V2.53846C12.3038 1.86522 12.0289 1.21955 11.5397 0.743498C11.0505 0.267444 10.387 0 9.6951 0H8.82553C8.59491 0 8.37373 0.0891481 8.21066 0.247833C8.04758 0.406517 7.95597 0.62174 7.95597 0.846154C7.95597 1.07057 8.04758 1.28579 8.21066 1.44448C8.37373 1.60316 8.59491 1.69231 8.82553 1.69231H9.6951C9.92572 1.69231 10.1469 1.78146 10.31 1.94014C10.473 2.09883 10.5647 2.31405 10.5647 2.53846V5.92308C10.5647 6.47867 10.4522 7.02882 10.2337 7.54212C10.0152 8.05542 9.69495 8.52182 9.29121 8.91468C8.88748 9.30755 8.40818 9.61918 7.88068 9.8318C7.35317 10.0444 6.7878 10.1538 6.21684 10.1538ZM16.6516 13.5385C16.1904 13.5385 15.748 13.3602 15.4219 13.0428C15.0957 12.7254 14.9125 12.295 14.9125 11.8462C14.9125 11.3973 15.0957 10.9669 15.4219 10.6495C15.748 10.3321 16.1904 10.1538 16.6516 10.1538C17.1129 10.1538 17.5552 10.3321 17.8814 10.6495C18.2075 10.9669 18.3907 11.3973 18.3907 11.8462C18.3907 12.295 18.2075 12.7254 17.8814 13.0428C17.5552 13.3602 17.1129 13.5385 16.6516 13.5385Z" fill="#4456A5"/>
</svg>
