<svg width="23" height="16" viewBox="0 0 23 16" fill="none" xmlns="http://www.w3.org/2000/svg">
<path d="M12.4976 1.49121H5.29488C3.15291 1.49121 1.4165 3.22762 1.4165 5.36959V10.9101C1.4165 13.0521 3.15291 14.7885 5.29488 14.7885H12.4976C14.6396 14.7885 16.376 13.0521 16.376 10.9101V5.36959C16.376 3.22762 14.6396 1.49121 12.4976 1.49121Z" stroke="white" stroke-width="1.5" stroke-linecap="round" stroke-linejoin="round"/>
<path d="M16.3757 5.63528L20.3139 3.67393C20.4829 3.58975 20.6705 3.55011 20.8591 3.55879C21.0476 3.56746 21.2309 3.62416 21.3914 3.7235C21.5519 3.82284 21.6843 3.96153 21.7762 4.12642C21.868 4.29131 21.9163 4.47693 21.9163 4.66569V11.6113C21.9164 11.8002 21.8682 11.986 21.7762 12.151C21.6843 12.3161 21.5517 12.4549 21.3911 12.5542C21.2304 12.6536 21.047 12.7103 20.8583 12.7188C20.6696 12.7273 20.4818 12.6875 20.3128 12.6031L16.3757 10.6384V5.63528Z" stroke="white" stroke-width="1.5" stroke-linecap="round" stroke-linejoin="round"/>
</svg>
